#tb 0: 1/25
#media_type 0: video
#codec_id 0: rawvideo
#dimensions 0: 176x288
#sar 0: 0/1
0,          0,          0,        1,   152064, 0x34b1fb03
0,          1,          1,        1,   152064, 0x2045eadd
0,          2,          2,        1,   152064, 0x1266cdde
0,          3,          3,        1,   152064, 0xc9f083bd
0,          4,          4,        1,   152064, 0x0701ab16
